<?xml version="1.0" standalone="no"?>
<!DOCTYPE svg PUBLIC "-//W3C//DTD SVG 20010904//EN"
 "http://www.w3.org/TR/2001/REC-SVG-20010904/DTD/svg10.dtd">
<svg version="1.0" xmlns="http://www.w3.org/2000/svg"
 width="1200.000000pt" height="1200.000000pt" viewBox="0 0 1200.000000 1200.000000"
 preserveAspectRatio="xMidYMid meet">
<metadata>
Created by potrace 1.11, written by Peter Selinger 2001-2013
</metadata>
<g transform="translate(0.000000,1200.000000) scale(0.100000,-0.100000)"
fill="#000000" stroke="none">
<path d="M1739 10901 c-5 -20 -3 -8431 1 -8432 8 -2 1101 -8 2223 -12 828 -3
1026 -2 1015 8 -7 7 -146 126 -308 265 -162 139 -306 262 -320 274 -14 11 -57
48 -95 81 -38 33 -83 71 -99 85 -16 14 -34 30 -40 35 -24 22 -142 121 -160
135 -16 12 -70 15 -315 17 -950 4 -911 3 -912 27 0 26 0 6605 1 6627 0 16 51
17 622 15 l623 -1 2 442 3 441 -1120 0 c-616 0 -1121 -3 -1121 -7z"/>
<path d="M8029 10879 c0 -16 0 -96 0 -179 0 -82 0 -269 0 -414 l1 -264 625 3
625 4 0 -3333 0 -3333 -597 -3 c-329 -1 -1142 -2 -1807 -3 -1194 0 -1209 0
-1186 -19 86 -70 106 -86 139 -113 21 -16 54 -43 75 -60 21 -16 46 -37 56 -45
9 -8 32 -26 50 -40 19 -14 47 -36 64 -50 17 -14 39 -32 50 -40 10 -8 33 -27
50 -41 17 -14 319 -256 671 -538 352 -282 648 -518 657 -526 172 -141 973
-777 983 -782 10 -3 13 0 10 8 -5 13 -87 449 -119 629 -16 91 -103 559 -111
600 -3 14 -8 43 -11 65 -3 22 -7 44 -8 50 0 6 372 9 1012 10 l1012 0 1 30 c0
16 1 1916 1 4220 l1 4190 -1121 2 -1122 2 -1 -30z"/>
<path d="M4140 8632 l-65 -3 1 -1913 c0 -1052 3 -1917 6 -1922 4 -5 176 -9
420 -9 l413 0 2 735 c1 404 2 743 2 753 1 16 59 17 1081 17 857 0 1080 -3
1081 -12 1 -7 3 -339 4 -738 1 -399 3 -732 4 -740 1 -13 53 -15 419 -15 l417
0 0 1923 c0 1057 -2 1922 -5 1922 -7 1 -756 1 -800 0 l-35 0 0 -747 0 -748
-1082 -3 -1083 -2 -1 32 c0 18 -1 356 -1 751 l-1 717 -26 1 c-94 2 -698 3
-751 1z"/>
</g>
</svg>
